<mxfile host="app.diagrams.net" modified="2022-01-28T22:48:00.723Z" agent="5.0 (Macintosh; Intel Mac OS X 10_15_7) AppleWebKit/605.1.15 (KHTML, like Gecko) Version/15.2 Safari/605.1.15" etag="gz4rBu_XoPlOeYbAM_I-" version="16.5.1" type="github">
  <diagram id="rDNZNoOIazLG-ZSMwZpk" name="Page-1">
    <mxGraphModel dx="703" dy="520" grid="1" gridSize="10" guides="1" tooltips="1" connect="1" arrows="1" fold="1" page="1" pageScale="1" pageWidth="850" pageHeight="1100" math="0" shadow="0">
      <root>
        <mxCell id="0" />
        <mxCell id="1" parent="0" />
        <mxCell id="PKlsrmbYicT5ZXfzezta-23" value="" style="rounded=0;whiteSpace=wrap;html=1;strokeColor=#8F8F8F;fillColor=none;" parent="1" vertex="1">
          <mxGeometry x="60" y="82.9" width="250" height="407.1" as="geometry" />
        </mxCell>
        <mxCell id="PKlsrmbYicT5ZXfzezta-50" style="edgeStyle=orthogonalEdgeStyle;rounded=0;orthogonalLoop=1;jettySize=auto;html=1;endArrow=classic;endFill=0;" parent="1" source="PKlsrmbYicT5ZXfzezta-23" target="PKlsrmbYicT5ZXfzezta-48" edge="1">
          <mxGeometry relative="1" as="geometry" />
        </mxCell>
        <mxCell id="PKlsrmbYicT5ZXfzezta-54" style="edgeStyle=orthogonalEdgeStyle;rounded=0;orthogonalLoop=1;jettySize=auto;html=1;endArrow=classic;endFill=0;" parent="1" source="PKlsrmbYicT5ZXfzezta-21" target="PKlsrmbYicT5ZXfzezta-49" edge="1">
          <mxGeometry relative="1" as="geometry" />
        </mxCell>
        <mxCell id="PKlsrmbYicT5ZXfzezta-21" value="" style="rounded=0;whiteSpace=wrap;html=1;strokeColor=#8F8F8F;fillColor=none;" parent="1" vertex="1">
          <mxGeometry x="500" y="82.9" width="250" height="390" as="geometry" />
        </mxCell>
        <mxCell id="PKlsrmbYicT5ZXfzezta-2" value="jobs" style="sketch=0;pointerEvents=1;shadow=0;dashed=0;html=1;strokeColor=#d6b656;labelPosition=right;verticalLabelPosition=middle;verticalAlign=middle;outlineConnect=0;align=left;shape=mxgraph.office.concepts.folder;fillColor=#fff2cc;spacingTop=2;spacingLeft=4;" parent="1" vertex="1">
          <mxGeometry x="120" y="180" width="30" height="20" as="geometry" />
        </mxCell>
        <mxCell id="PKlsrmbYicT5ZXfzezta-42" style="edgeStyle=orthogonalEdgeStyle;rounded=0;orthogonalLoop=1;jettySize=auto;html=1;endArrow=none;endFill=0;" parent="1" source="PKlsrmbYicT5ZXfzezta-10" target="PKlsrmbYicT5ZXfzezta-27" edge="1">
          <mxGeometry relative="1" as="geometry" />
        </mxCell>
        <mxCell id="PKlsrmbYicT5ZXfzezta-10" value="workspace.json" style="dashed=0;outlineConnect=0;html=1;align=left;labelPosition=right;verticalLabelPosition=middle;verticalAlign=middle;shape=mxgraph.weblogos.json;fillColor=none;strokeColor=none;fontColor=#333333;spacingLeft=4;" parent="1" vertex="1">
          <mxGeometry x="120" y="442.9" width="30" height="30" as="geometry" />
        </mxCell>
        <mxCell id="PKlsrmbYicT5ZXfzezta-11" value="Databricks Workpace" style="sketch=0;aspect=fixed;html=1;points=[];align=center;image;fontSize=12;image=img/lib/mscae/Databricks.svg;strokeColor=#8F8F8F;fillColor=none;" parent="1" vertex="1">
          <mxGeometry x="600" y="142" width="50" height="48" as="geometry" />
        </mxCell>
        <mxCell id="PKlsrmbYicT5ZXfzezta-12" value="" style="rounded=0;whiteSpace=wrap;html=1;strokeColor=#8F8F8F;fillColor=none;" parent="1" vertex="1">
          <mxGeometry x="540" y="190" width="170" height="260" as="geometry" />
        </mxCell>
        <mxCell id="PKlsrmbYicT5ZXfzezta-13" value="Jobs" style="rounded=0;whiteSpace=wrap;html=1;strokeColor=#8F8F8F;fillColor=none;" parent="1" vertex="1">
          <mxGeometry x="580" y="230" width="90" height="20" as="geometry" />
        </mxCell>
        <mxCell id="PKlsrmbYicT5ZXfzezta-14" value="Notebooks" style="rounded=0;whiteSpace=wrap;html=1;strokeColor=#8F8F8F;fillColor=none;" parent="1" vertex="1">
          <mxGeometry x="580" y="260" width="90" height="20" as="geometry" />
        </mxCell>
        <mxCell id="PKlsrmbYicT5ZXfzezta-15" value="Clusters" style="rounded=0;whiteSpace=wrap;html=1;strokeColor=#8F8F8F;fillColor=none;" parent="1" vertex="1">
          <mxGeometry x="580" y="290" width="90" height="20" as="geometry" />
        </mxCell>
        <mxCell id="PKlsrmbYicT5ZXfzezta-16" value="Closter Policies" style="rounded=0;whiteSpace=wrap;html=1;strokeColor=#8F8F8F;fillColor=none;" parent="1" vertex="1">
          <mxGeometry x="580" y="320" width="90" height="20" as="geometry" />
        </mxCell>
        <mxCell id="PKlsrmbYicT5ZXfzezta-17" value="Init Scripts" style="rounded=0;whiteSpace=wrap;html=1;strokeColor=#8F8F8F;fillColor=none;" parent="1" vertex="1">
          <mxGeometry x="580" y="350" width="90" height="20" as="geometry" />
        </mxCell>
        <mxCell id="PKlsrmbYicT5ZXfzezta-18" value="Groups" style="rounded=0;whiteSpace=wrap;html=1;strokeColor=#8F8F8F;fillColor=none;" parent="1" vertex="1">
          <mxGeometry x="580" y="380" width="90" height="20" as="geometry" />
        </mxCell>
        <mxCell id="PKlsrmbYicT5ZXfzezta-20" value="Azure" style="verticalLabelPosition=bottom;html=1;verticalAlign=top;align=center;strokeColor=none;fillColor=#00BEF2;shape=mxgraph.azure.cloud;" parent="1" vertex="1">
          <mxGeometry x="490" y="50.39999999999999" width="50" height="32.5" as="geometry" />
        </mxCell>
        <mxCell id="PKlsrmbYicT5ZXfzezta-26" value="Github Repo" style="dashed=0;outlineConnect=0;html=1;align=center;labelPosition=center;verticalLabelPosition=bottom;verticalAlign=top;shape=mxgraph.weblogos.github;strokeColor=#8F8F8F;fillColor=none;" parent="1" vertex="1">
          <mxGeometry x="60" y="43.5" width="40" height="39.4" as="geometry" />
        </mxCell>
        <mxCell id="PKlsrmbYicT5ZXfzezta-30" style="edgeStyle=orthogonalEdgeStyle;rounded=0;orthogonalLoop=1;jettySize=auto;html=1;endArrow=none;endFill=0;" parent="1" source="PKlsrmbYicT5ZXfzezta-27" target="PKlsrmbYicT5ZXfzezta-2" edge="1">
          <mxGeometry relative="1" as="geometry">
            <Array as="points">
              <mxPoint x="95" y="190" />
            </Array>
          </mxGeometry>
        </mxCell>
        <mxCell id="PKlsrmbYicT5ZXfzezta-27" value="databricks" style="sketch=0;pointerEvents=1;shadow=0;dashed=0;html=1;strokeColor=#d6b656;labelPosition=right;verticalLabelPosition=middle;verticalAlign=middle;outlineConnect=0;align=left;shape=mxgraph.office.concepts.folder;fillColor=#fff2cc;spacingTop=2;spacingLeft=4;" parent="1" vertex="1">
          <mxGeometry x="80" y="122" width="30" height="20" as="geometry" />
        </mxCell>
        <mxCell id="PKlsrmbYicT5ZXfzezta-37" style="edgeStyle=orthogonalEdgeStyle;rounded=0;orthogonalLoop=1;jettySize=auto;html=1;endArrow=none;endFill=0;" parent="1" source="PKlsrmbYicT5ZXfzezta-31" target="PKlsrmbYicT5ZXfzezta-27" edge="1">
          <mxGeometry relative="1" as="geometry" />
        </mxCell>
        <mxCell id="PKlsrmbYicT5ZXfzezta-31" value="notebooks" style="sketch=0;pointerEvents=1;shadow=0;dashed=0;html=1;strokeColor=#d6b656;labelPosition=right;verticalLabelPosition=middle;verticalAlign=middle;outlineConnect=0;align=left;shape=mxgraph.office.concepts.folder;fillColor=#fff2cc;spacingTop=2;spacingLeft=4;" parent="1" vertex="1">
          <mxGeometry x="120" y="250" width="30" height="20" as="geometry" />
        </mxCell>
        <mxCell id="PKlsrmbYicT5ZXfzezta-38" style="edgeStyle=orthogonalEdgeStyle;rounded=0;orthogonalLoop=1;jettySize=auto;html=1;endArrow=none;endFill=0;" parent="1" source="PKlsrmbYicT5ZXfzezta-32" target="PKlsrmbYicT5ZXfzezta-27" edge="1">
          <mxGeometry relative="1" as="geometry" />
        </mxCell>
        <mxCell id="PKlsrmbYicT5ZXfzezta-32" value="clusters" style="sketch=0;pointerEvents=1;shadow=0;dashed=0;html=1;strokeColor=#d6b656;labelPosition=right;verticalLabelPosition=middle;verticalAlign=middle;outlineConnect=0;align=left;shape=mxgraph.office.concepts.folder;fillColor=#fff2cc;spacingTop=2;spacingLeft=4;" parent="1" vertex="1">
          <mxGeometry x="120" y="322.9" width="30" height="20" as="geometry" />
        </mxCell>
        <mxCell id="PKlsrmbYicT5ZXfzezta-39" style="edgeStyle=orthogonalEdgeStyle;rounded=0;orthogonalLoop=1;jettySize=auto;html=1;endArrow=none;endFill=0;" parent="1" source="PKlsrmbYicT5ZXfzezta-33" target="PKlsrmbYicT5ZXfzezta-27" edge="1">
          <mxGeometry relative="1" as="geometry" />
        </mxCell>
        <mxCell id="PKlsrmbYicT5ZXfzezta-33" value="cluster_policies" style="sketch=0;pointerEvents=1;shadow=0;dashed=0;html=1;strokeColor=#d6b656;labelPosition=right;verticalLabelPosition=middle;verticalAlign=middle;outlineConnect=0;align=left;shape=mxgraph.office.concepts.folder;fillColor=#fff2cc;spacingTop=2;spacingLeft=4;" parent="1" vertex="1">
          <mxGeometry x="120" y="352.9" width="30" height="20" as="geometry" />
        </mxCell>
        <mxCell id="PKlsrmbYicT5ZXfzezta-40" style="edgeStyle=orthogonalEdgeStyle;rounded=0;orthogonalLoop=1;jettySize=auto;html=1;endArrow=none;endFill=0;" parent="1" source="PKlsrmbYicT5ZXfzezta-34" target="PKlsrmbYicT5ZXfzezta-27" edge="1">
          <mxGeometry relative="1" as="geometry" />
        </mxCell>
        <mxCell id="PKlsrmbYicT5ZXfzezta-34" value="init_scripts" style="sketch=0;pointerEvents=1;shadow=0;dashed=0;html=1;strokeColor=#d6b656;labelPosition=right;verticalLabelPosition=middle;verticalAlign=middle;outlineConnect=0;align=left;shape=mxgraph.office.concepts.folder;fillColor=#fff2cc;spacingTop=2;spacingLeft=4;" parent="1" vertex="1">
          <mxGeometry x="120" y="382.9" width="30" height="20" as="geometry" />
        </mxCell>
        <mxCell id="PKlsrmbYicT5ZXfzezta-41" style="edgeStyle=orthogonalEdgeStyle;rounded=0;orthogonalLoop=1;jettySize=auto;html=1;endArrow=none;endFill=0;" parent="1" source="PKlsrmbYicT5ZXfzezta-35" target="PKlsrmbYicT5ZXfzezta-27" edge="1">
          <mxGeometry relative="1" as="geometry" />
        </mxCell>
        <mxCell id="PKlsrmbYicT5ZXfzezta-35" value="groups" style="sketch=0;pointerEvents=1;shadow=0;dashed=0;html=1;strokeColor=#d6b656;labelPosition=right;verticalLabelPosition=middle;verticalAlign=middle;outlineConnect=0;align=left;shape=mxgraph.office.concepts.folder;fillColor=#fff2cc;spacingTop=2;spacingLeft=4;" parent="1" vertex="1">
          <mxGeometry x="120" y="412.9" width="30" height="20" as="geometry" />
        </mxCell>
        <mxCell id="PKlsrmbYicT5ZXfzezta-43" value="Databricks Auto Deployer" style="rounded=0;whiteSpace=wrap;html=1;strokeColor=#8F8F8F;fillColor=none;labelPosition=center;verticalLabelPosition=top;align=center;verticalAlign=bottom;" parent="1" vertex="1">
          <mxGeometry x="360" y="160" width="90" height="240" as="geometry" />
        </mxCell>
        <mxCell id="PKlsrmbYicT5ZXfzezta-51" style="edgeStyle=orthogonalEdgeStyle;rounded=0;orthogonalLoop=1;jettySize=auto;html=1;endArrow=classic;endFill=0;" parent="1" source="PKlsrmbYicT5ZXfzezta-48" target="PKlsrmbYicT5ZXfzezta-21" edge="1">
          <mxGeometry relative="1" as="geometry" />
        </mxCell>
        <mxCell id="PKlsrmbYicT5ZXfzezta-48" value="deploy" style="rounded=0;whiteSpace=wrap;html=1;strokeColor=#8F8F8F;fillColor=none;" parent="1" vertex="1">
          <mxGeometry x="375" y="220" width="60" height="30" as="geometry" />
        </mxCell>
        <mxCell id="PKlsrmbYicT5ZXfzezta-53" style="edgeStyle=orthogonalEdgeStyle;rounded=0;orthogonalLoop=1;jettySize=auto;html=1;entryX=1;entryY=0.5;entryDx=0;entryDy=0;endArrow=classic;endFill=0;" parent="1" source="PKlsrmbYicT5ZXfzezta-49" target="PKlsrmbYicT5ZXfzezta-23" edge="1">
          <mxGeometry relative="1" as="geometry" />
        </mxCell>
        <mxCell id="PKlsrmbYicT5ZXfzezta-49" value="dump" style="rounded=0;whiteSpace=wrap;html=1;strokeColor=#8F8F8F;fillColor=none;" parent="1" vertex="1">
          <mxGeometry x="375" y="290" width="60" height="30" as="geometry" />
        </mxCell>
        <mxCell id="PKlsrmbYicT5ZXfzezta-55" value="job1.json" style="dashed=0;outlineConnect=0;html=1;align=left;labelPosition=right;verticalLabelPosition=middle;verticalAlign=middle;shape=mxgraph.weblogos.json;fillColor=none;strokeColor=none;fontColor=#333333;spacingLeft=4;" parent="1" vertex="1">
          <mxGeometry x="130" y="210" width="30" height="30" as="geometry" />
        </mxCell>
        <mxCell id="PKlsrmbYicT5ZXfzezta-58" value="&lt;h1&gt;&lt;font style=&quot;font-size: 18px&quot;&gt;Command line interface&lt;/font&gt;&lt;/h1&gt;&lt;div&gt;&lt;font face=&quot;Courier New&quot; style=&quot;font-size: 14px&quot;&gt;dad deploy --workspace-url https://&amp;lt;url&amp;gt;&lt;/font&gt;&lt;/div&gt;&lt;div&gt;&lt;font face=&quot;Courier New&quot; style=&quot;font-size: 14px&quot;&gt;dad dump&amp;nbsp;&lt;/font&gt;&lt;span style=&quot;font-size: 14px ; font-family: &amp;#34;courier new&amp;#34;&quot;&gt;--workspace-url https://&amp;lt;url&amp;gt;&lt;/span&gt;&lt;/div&gt;" style="text;html=1;strokeColor=none;fillColor=none;spacing=5;spacingTop=-20;whiteSpace=wrap;overflow=hidden;rounded=0;" parent="1" vertex="1">
          <mxGeometry x="80" y="490" width="500" height="100" as="geometry" />
        </mxCell>
        <mxCell id="PKlsrmbYicT5ZXfzezta-59" value="&lt;h1&gt;&lt;font style=&quot;font-size: 18px&quot;&gt;Python api&lt;/font&gt;&lt;/h1&gt;&lt;div&gt;&lt;font face=&quot;Courier New&quot; style=&quot;font-size: 14px&quot;&gt;import dad&lt;/font&gt;&lt;/div&gt;&lt;div&gt;&lt;font face=&quot;Courier New&quot; style=&quot;font-size: 14px&quot;&gt;dad.deploy(workspace_url=&quot;&lt;/font&gt;&lt;span style=&quot;font-size: 14px ; font-family: &amp;#34;courier new&amp;#34;&quot;&gt;url https://&amp;lt;url&amp;gt;&quot;)&lt;/span&gt;&lt;/div&gt;&lt;div&gt;&lt;font face=&quot;Courier New&quot; style=&quot;font-size: 14px&quot;&gt;dad.dump(workspace_url=&quot;&lt;/font&gt;&lt;span style=&quot;font-size: 14px ; font-family: &amp;#34;courier new&amp;#34;&quot;&gt;url https://&amp;lt;url&amp;gt;&quot;)&lt;/span&gt;&lt;br&gt;&lt;/div&gt;" style="text;html=1;strokeColor=none;fillColor=none;spacing=5;spacingTop=-20;whiteSpace=wrap;overflow=hidden;rounded=0;" parent="1" vertex="1">
          <mxGeometry x="80" y="630" width="500" height="100" as="geometry" />
        </mxCell>
        <mxCell id="PKlsrmbYicT5ZXfzezta-60" value="notebook1.py" style="shape=image;html=1;verticalAlign=middle;verticalLabelPosition=middle;labelBackgroundColor=#ffffff;imageAspect=0;aspect=fixed;image=https://cdn0.iconfinder.com/data/icons/font-awesome-brands-vol-2/512/python-128.png;fontFamily=Helvetica;fontSize=12;strokeColor=#8F8F8F;fillColor=none;labelPosition=right;align=left;spacingLeft=4;" parent="1" vertex="1">
          <mxGeometry x="130" y="280" width="30" height="30" as="geometry" />
        </mxCell>
        <mxCell id="sDTlzNRKho0wvtpNI2ED-1" value="Databricks Auto Deployer Design" style="text;html=1;strokeColor=none;fillColor=none;align=left;verticalAlign=middle;whiteSpace=wrap;rounded=0;fontFamily=Helvetica;fontSize=19;" vertex="1" parent="1">
          <mxGeometry x="10" y="10" width="290" height="30" as="geometry" />
        </mxCell>
      </root>
    </mxGraphModel>
  </diagram>
</mxfile>
